<?xml version="1.0" encoding="utf-8"?>
<!-- Generator: Adobe Illustrator 21.0.2, SVG Export Plug-In . SVG Version: 6.00 Build 0)  -->
<svg version="1.1" id="Layer_1" xmlns="http://www.w3.org/2000/svg" xmlns:xlink="http://www.w3.org/1999/xlink" x="0px" y="0px"
	 viewBox="0 0 60 60" style="enable-background:new 0 0 60 60;" xml:space="preserve">
<style type="text/css">
	.st0{fill:#334A5E;}
	.st1{fill:#EBC95D;}
	.st2{fill:#40596B;}
	.st3{fill:#FFFFFF;}
	.st4{fill:#FBBB00;}
	.st5{fill:#518EF8;}
	.st6{fill:#28B446;}
	.st7{fill:#F14336;}
</style>
<polygon class="st0" points="48.1,44.7 45.4,47.5 42.5,44.7 45.3,41.9 "/>
<path class="st1" d="M57.3,56.6L57.3,56.6c-1.6,1.6-4.3,1.6-6,0l-8.1-8.1l6-6l8.1,8.1C58.9,52.3,58.9,55,57.3,56.6z"/>
<path class="st2" d="M43.7,9.1c-9.6-9.4-25-9.6-34.5,0s-9.7,24.7-0.1,34.3c9.4,9.5,24.9,9.5,34.5,0.1S53.1,18.6,43.7,9.1z"/>
<path class="st3" d="M39.8,39.7c-7.5,7.4-19.7,7.4-27-0.1c-7.5-7.4-7.4-19.5,0.1-26.8s19.7-7.4,27,0.1
	C47.3,20.3,47.3,32.4,39.8,39.7z"/>
<g>
	<path class="st4" d="M17.8,29.3l-1.1,3.9l-3.9,0.1c-1.2-2.2-1.8-4.6-1.8-7.2c0-2.5,0.7-4.9,1.7-7l0,0l3.5,0.7l1.5,3.5
		c-0.3,0.9-0.4,2-0.4,2.9C17.3,27.3,17.5,28.4,17.8,29.3z"/>
	<path class="st5" d="M41.3,23.4c0.2,0.9,0.2,1.8,0.2,2.8c0,1.1-0.1,2.2-0.3,3.2c-0.8,3.5-2.7,6.5-5.3,8.7l0,0l-4.3-0.2L30.9,34
		c1.7-1.1,3.2-2.7,3.9-4.7h-8.1v-6h8.3H41.3L41.3,23.4z"/>
	<path class="st6" d="M35.9,38L35.9,38c-2.6,2.1-5.9,3.4-9.6,3.4c-5.8,0-10.9-3.3-13.4-8l4.9-4c1.3,3.5,4.6,5.9,8.5,5.9
		c1.6,0,3.3-0.4,4.6-1.2L35.9,38z"/>
	<path class="st7" d="M36.1,14.5l-5,4c-1.4-0.9-3-1.4-4.8-1.4c-3.9,0-7.4,2.5-8.6,6.1l-5-4l0,0c2.5-4.9,7.6-8.3,13.5-8.3
		C30,11,33.4,12.3,36.1,14.5z"/>
</g>
</svg>
