<?xml version="1.0" encoding="utf-8"?>
<!-- Generator: Adobe Illustrator 16.0.0, SVG Export Plug-In . SVG Version: 6.00 Build 0)  -->
<!DOCTYPE svg PUBLIC "-//W3C//DTD SVG 1.1//EN" "http://www.w3.org/Graphics/SVG/1.1/DTD/svg11.dtd">
<svg version="1.1" id="Layer_1" xmlns="http://www.w3.org/2000/svg" xmlns:xlink="http://www.w3.org/1999/xlink" x="0px" y="0px"
	 width="100px" height="100px" viewBox="0 0 100 100" enable-background="new 0 0 100 100" xml:space="preserve">
<path fill="#D1D5D7" d="M89.375,41.563l-4.181-1.365c-0.802-2.876-1.928-5.614-3.367-8.154l1.983-3.914
	c2.197-2.197,2.197-5.757,0-7.96l-3.978-3.977c-2.197-2.197-5.757-2.197-7.954,0l-3.911,1.983c-2.543-1.439-5.278-2.565-8.157-3.368
	l-1.373-4.186C58.438,7.519,55.916,5,52.813,5h-5.625c-3.104,0-5.625,2.519-5.625,5.622L40.2,14.808
	c-2.87,0.797-5.592,1.918-8.13,3.352l-3.944-1.967c-2.197-2.197-5.76-2.197-7.954,0l-3.982,3.977c-2.197,2.197-2.197,5.757,0,7.96
	l1.967,3.941c-1.429,2.524-2.543,5.235-3.346,8.086l-4.186,1.406C7.521,41.563,5,44.081,5,47.188v5.628
	c0,3.104,2.521,5.625,5.625,5.625l4.191,1.406c0.797,2.851,1.917,5.564,3.34,8.086l-1.961,3.949c-2.197,2.192-2.197,5.757,0,7.949
	l3.977,3.977c2.194,2.197,5.757,2.197,7.954,0l3.944-1.961c2.521,1.423,5.235,2.538,8.086,3.34l1.406,4.191
	c0,3.104,2.521,5.625,5.625,5.625h5.625c3.104,0,5.625-2.521,5.625-5.625l1.406-4.191c2.862-0.802,5.581-1.923,8.113-3.356
	l3.922,1.983c2.197,2.197,5.757,2.197,7.954,0l3.978-3.978c2.197-2.197,2.197-5.762,0-7.954l-1.988-3.916
	c1.441-2.544,2.57-5.273,3.372-8.146l4.181-1.379c3.104,0,5.625-2.521,5.625-5.625v-5.628C95,44.081,92.479,41.563,89.375,41.563z
	 M50,66.878c-9.316,0-16.875-7.559-16.875-16.878S40.684,33.122,50,33.122S66.875,40.681,66.875,50
	C66.875,59.324,59.316,66.878,50,66.878z"/>
<path fill="#EBEBEB" d="M50,13.44c-20.193,0-36.563,16.369-36.563,36.563c0,20.192,16.369,36.563,36.563,36.563
	s36.563-16.364,36.563-36.563C86.563,29.81,70.193,13.44,50,13.44z M50,61.253c-6.213,0-11.25-5.037-11.25-11.25
	s5.037-11.25,11.25-11.25s11.25,5.037,11.25,11.25S56.213,61.253,50,61.253z"/>
<path fill="#D1D5D7" d="M50,30.315c-10.874,0-19.688,8.816-19.688,19.688c0,10.876,8.813,19.688,19.688,19.688
	s19.688-8.812,19.688-19.688C69.688,39.132,60.874,30.315,50,30.315z M50,61.253c-6.213,0-11.25-5.037-11.25-11.25
	s5.037-11.25,11.25-11.25s11.25,5.037,11.25,11.25S56.213,61.253,50,61.253z"/>
</svg>
